<svg width="28" height="28" viewBox="0 0 28 28" fill="none" xmlns="http://www.w3.org/2000/svg">
<g clip-path="url(#clip0_121_53337)" filter="url(#filter0_d_121_53337)">
<path d="M19.3438 19.1562C16.7813 19.1562 13.0938 17.3125 9.71876 14.0937C5.12501 9.71875 3.15626 4.84375 5.15626 2.71875C5.25001 2.625 5.34376 2.5625 5.46876 2.5L8.09376 1.03125C8.68751 0.718746 9.43751 0.874996 9.81251 1.40625L11.7188 4.125C11.9063 4.40625 12 4.75 11.9375 5.0625C11.875 5.40625 11.6875 5.6875 11.4063 5.875L10.25 6.625C10.1875 6.65625 10.1875 6.6875 10.1875 6.71875C10.1875 6.75 10.1875 6.78125 10.2188 6.8125C11.0625 8.0625 13.4688 11.25 17.2813 13.5312C17.375 13.5937 17.5313 13.5625 17.5938 13.5L18.4063 12.4062C18.8125 11.8437 19.5938 11.7187 20.1875 12.0937L23.0313 13.9062C23.625 14.2812 23.8125 15.0312 23.4375 15.625L21.875 18.125C21.8125 18.25 21.7188 18.3437 21.625 18.4062C21.0313 18.9375 20.25 19.1562 19.3438 19.1562ZM8.75001 1.9375C8.71876 1.9375 8.68751 1.9375 8.62501 1.96875L6.00001 3.4375C5.96876 3.46875 5.96876 3.46875 5.93751 3.46875C4.62501 4.875 6.12501 9.15625 10.5 13.3125C14.875 17.4687 19.4063 18.9062 20.9063 17.625C20.9063 17.625 20.9063 17.625 20.9375 17.5937L22.5 15.0937C22.5313 15.0312 22.5313 14.9375 22.4375 14.875L19.5938 13.0625C19.5 13 19.3438 13.0312 19.2813 13.0937L18.4688 14.1875C18.0625 14.7187 17.3125 14.875 16.7188 14.5312C12.6875 12.125 10.1875 8.78125 9.31251 7.4375C9.12501 7.15625 9.06251 6.84375 9.12501 6.5C9.18751 6.1875 9.37501 5.875 9.65626 5.71875L10.8125 4.9375C10.875 4.90625 10.875 4.875 10.875 4.84375C10.875 4.8125 10.875 4.78125 10.8438 4.71875L8.93751 2C8.90626 1.96875 8.81251 1.9375 8.75001 1.9375Z" fill="white"/>
</g>
<defs>
<filter id="filter0_d_121_53337" x="0" y="0" width="28" height="28" filterUnits="userSpaceOnUse" color-interpolation-filters="sRGB">
<feFlood flood-opacity="0" result="BackgroundImageFix"/>
<feColorMatrix in="SourceAlpha" type="matrix" values="0 0 0 0 0 0 0 0 0 0 0 0 0 0 0 0 0 0 127 0" result="hardAlpha"/>
<feOffset dy="4"/>
<feGaussianBlur stdDeviation="2"/>
<feComposite in2="hardAlpha" operator="out"/>
<feColorMatrix type="matrix" values="0 0 0 0 0 0 0 0 0 0 0 0 0 0 0 0 0 0 0.25 0"/>
<feBlend mode="normal" in2="BackgroundImageFix" result="effect1_dropShadow_121_53337"/>
<feBlend mode="normal" in="SourceGraphic" in2="effect1_dropShadow_121_53337" result="shape"/>
</filter>
<clipPath id="clip0_121_53337">
<rect width="20" height="20" fill="white" transform="translate(4)"/>
</clipPath>
</defs>
</svg>
